<svg viewBox="0 0 20 24" fill="none" xmlns="http://www.w3.org/2000/svg">
<path d="M19.348 8.18242C19.2093 8.29043 16.7603 9.67537 16.7603 12.7549C16.7603 16.3168 19.8765 17.577 19.9698 17.6082C19.9554 17.685 19.4747 19.3339 18.3268 21.0141C17.3032 22.4926 16.2341 23.9688 14.6079 23.9688C12.9816 23.9688 12.5631 23.0207 10.6857 23.0207C8.85615 23.0207 8.20564 24 6.71808 24C5.23053 24 4.19258 22.6319 2.99919 20.9517C1.61686 18.9787 0.5 15.9136 0.5 13.0045C0.5 8.33843 3.52295 5.86379 6.49806 5.86379C8.07889 5.86379 9.39664 6.90549 10.3891 6.90549C11.3338 6.90549 12.807 5.80138 14.6055 5.80138C15.2871 5.80138 17.736 5.86379 19.348 8.18242ZM13.7517 3.82598C14.4955 2.94029 15.0216 1.71137 15.0216 0.482448C15.0216 0.312031 15.0073 0.139214 14.9762 0C13.766 0.0456046 12.3263 0.808881 11.4582 1.81938C10.7766 2.59706 10.1404 3.82598 10.1404 5.07171C10.1404 5.25893 10.1715 5.44614 10.1859 5.50615C10.2624 5.52055 10.3868 5.53735 10.5111 5.53735C11.5969 5.53735 12.9625 4.80768 13.7517 3.82598Z" fill="white"/>
</svg>
