<svg width="34" height="34" viewBox="0 0 34 34" fill="none" xmlns="http://www.w3.org/2000/svg">
<path fill-rule="evenodd" clip-rule="evenodd" d="M17 32.25C25.4223 32.25 32.25 25.4223 32.25 17C32.25 8.57766 25.4223 1.75 17 1.75C8.57766 1.75 1.75 8.57765 1.75 17C1.75 25.4223 8.57766 32.25 17 32.25ZM33.75 17C33.75 26.2508 26.2508 33.75 17 33.75C7.74923 33.75 0.250001 26.2508 0.250001 17C0.250002 7.74923 7.74923 0.249998 17 0.249999C26.2508 0.249999 33.75 7.74923 33.75 17Z" fill="white"/>
<path fill-rule="evenodd" clip-rule="evenodd" d="M16.4697 24.5303C16.1768 24.2374 16.1768 23.7626 16.4697 23.4697L22.1893 17.75L10 17.75C9.58579 17.75 9.25 17.4142 9.25 17C9.25 16.5858 9.58579 16.25 10 16.25L22.1893 16.25L16.4697 10.5303C16.1768 10.2374 16.1768 9.76256 16.4697 9.46967C16.7626 9.17678 17.2374 9.17678 17.5303 9.46967L24.5303 16.4697C24.8232 16.7626 24.8232 17.2374 24.5303 17.5303L17.5303 24.5303C17.2374 24.8232 16.7626 24.8232 16.4697 24.5303Z" fill="white"/>
</svg>
