<svg width="34" height="34" viewBox="0 0 34 34" fill="none" xmlns="http://www.w3.org/2000/svg">
<path fill-rule="evenodd" clip-rule="evenodd" d="M17 1.75C8.57766 1.75 1.75 8.57766 1.75 17C1.75 25.4223 8.57766 32.25 17 32.25C25.4223 32.25 32.25 25.4223 32.25 17C32.25 8.57766 25.4223 1.75 17 1.75ZM0.25 17C0.25 7.74923 7.74923 0.25 17 0.25C26.2508 0.25 33.75 7.74923 33.75 17C33.75 26.2508 26.2508 33.75 17 33.75C7.74923 33.75 0.25 26.2508 0.25 17Z" fill="white"/>
<path fill-rule="evenodd" clip-rule="evenodd" d="M17.5303 9.46967C17.8232 9.76256 17.8232 10.2374 17.5303 10.5303L11.8107 16.25H24C24.4142 16.25 24.75 16.5858 24.75 17C24.75 17.4142 24.4142 17.75 24 17.75H11.8107L17.5303 23.4697C17.8232 23.7626 17.8232 24.2374 17.5303 24.5303C17.2374 24.8232 16.7626 24.8232 16.4697 24.5303L9.46967 17.5303C9.17678 17.2374 9.17678 16.7626 9.46967 16.4697L16.4697 9.46967C16.7626 9.17678 17.2374 9.17678 17.5303 9.46967Z" fill="white"/>
</svg>
