<svg viewBox="0 0 24 24" fill="none" xmlns="http://www.w3.org/2000/svg">
<path d="M11.9998 9.81799V14.4653H18.458C18.1744 15.9598 17.3234 17.2253 16.0471 18.0762L19.9416 21.0981C22.2107 19.0036 23.5198 15.9272 23.5198 12.2727C23.5198 11.4218 23.4434 10.6035 23.3016 9.81812L11.9998 9.81799Z" fill="#4285F4"/>
<path d="M5.27468 14.284L4.39631 14.9564L1.28717 17.3782C3.26171 21.2945 7.30868 24 11.9996 24C15.2395 24 17.9558 22.9309 19.9413 21.0982L16.0468 18.0764C14.9777 18.7963 13.614 19.2328 11.9996 19.2328C8.87957 19.2328 6.22874 17.1273 5.27958 14.2909L5.27468 14.284Z" fill="#34A853"/>
<path d="M1.28718 6.62225C0.469042 8.23673 0 10.0586 0 12.0004C0 13.9421 0.469042 15.764 1.28718 17.3785C1.28718 17.3893 5.27997 14.2803 5.27997 14.2803C5.03998 13.5603 4.89812 12.7967 4.89812 12.0002C4.89812 11.2038 5.03998 10.4402 5.27997 9.72018L1.28718 6.62225Z" fill="#FBBC05"/>
<path d="M11.9998 4.77818C13.7671 4.77818 15.338 5.38907 16.5925 6.56727L20.0289 3.13095C17.9452 1.18917 15.2398 0 11.9998 0C7.30893 0 3.26171 2.69454 1.28717 6.62183L5.27984 9.72001C6.22888 6.88362 8.87982 4.77818 11.9998 4.77818Z" fill="#EA4335"/>
</svg>
